<?xml version="1.0" encoding="utf-8"?>
<!-- Generator: Adobe Illustrator 25.4.1, SVG Export Plug-In . SVG Version: 6.00 Build 0)  -->
<svg version="1.1" id="Calque_1" xmlns="http://www.w3.org/2000/svg" xmlns:xlink="http://www.w3.org/1999/xlink" x="0px" y="0px"
	 width="25.9px" height="25.9px" viewBox="0 0 25.9 25.9" style="enable-background:new 0 0 25.9 25.9;" xml:space="preserve">
<path id="Icon_awesome-instagram" d="M13,6.3c-3.7,0-6.6,3-6.6,6.6s3,6.6,6.6,6.6s6.6-3,6.6-6.6c0,0,0,0,0,0
	C19.6,9.3,16.7,6.3,13,6.3C13,6.3,13,6.3,13,6.3z M13,17.3c-2.4,0-4.3-1.9-4.3-4.3c0-2.4,1.9-4.3,4.3-4.3c2.4,0,4.3,1.9,4.3,4.3
	C17.3,15.3,15.4,17.3,13,17.3L13,17.3z M21.4,6c0,0.9-0.7,1.6-1.6,1.6S18.3,6.9,18.3,6s0.7-1.6,1.6-1.6C20.7,4.5,21.4,5.2,21.4,6
	C21.4,6,21.4,6,21.4,6z M25.8,7.6c0-2-0.7-4-2.1-5.4c-1.5-1.4-3.4-2.1-5.4-2.1C16.2,0,9.8,0,7.6,0.1c-2,0-4,0.7-5.4,2.1
	C0.8,3.6,0.1,5.6,0.1,7.6C0,9.8,0,16.2,0.1,18.3c0,2,0.7,4,2.1,5.4c1.5,1.4,3.4,2.1,5.4,2.1c2.1,0.1,8.6,0.1,10.7,0
	c2,0,4-0.7,5.4-2.1c1.4-1.5,2.1-3.4,2.1-5.4C26,16.2,26,9.8,25.8,7.6L25.8,7.6z M23.1,20.6c-0.4,1.1-1.3,2-2.5,2.5
	c-1.7,0.7-5.8,0.5-7.6,0.5S7,23.7,5.3,23.1c-1.1-0.4-2-1.3-2.5-2.5c-0.7-1.7-0.5-5.8-0.5-7.6S2.2,7,2.9,5.3c0.4-1.1,1.3-2,2.5-2.5
	C7,2.2,11.1,2.3,13,2.3s5.9-0.2,7.6,0.5c1.1,0.4,2,1.3,2.5,2.5c0.7,1.7,0.5,5.8,0.5,7.6S23.8,18.9,23.1,20.6z"/>
</svg>
