<svg xmlns="http://www.w3.org/2000/svg" width="25.935" height="25.929" viewBox="0 0 25.935 25.929">
  <path id="Icon_awesome-instagram" data-name="Icon awesome-instagram" d="M12.965,8.554A6.648,6.648,0,1,0,19.613,15.2,6.637,6.637,0,0,0,12.965,8.554Zm0,10.97A4.322,4.322,0,1,1,17.287,15.2a4.33,4.33,0,0,1-4.322,4.322Zm8.47-11.242a1.551,1.551,0,1,1-1.551-1.551A1.547,1.547,0,0,1,21.435,8.282Zm4.4,1.574a7.674,7.674,0,0,0-2.094-5.433,7.724,7.724,0,0,0-5.433-2.094c-2.141-.122-8.557-.122-10.7,0A7.713,7.713,0,0,0,2.18,4.418,7.7,7.7,0,0,0,.086,9.85c-.122,2.141-.122,8.557,0,10.7A7.674,7.674,0,0,0,2.18,25.981a7.734,7.734,0,0,0,5.433,2.094c2.141.122,8.557.122,10.7,0a7.673,7.673,0,0,0,5.433-2.094,7.724,7.724,0,0,0,2.094-5.433c.121-2.141.121-8.552,0-10.692ZM23.073,22.846a4.376,4.376,0,0,1-2.465,2.465c-1.707.677-5.757.521-7.643.521s-5.942.15-7.643-.521a4.376,4.376,0,0,1-2.465-2.465c-.677-1.707-.521-5.757-.521-7.643s-.15-5.942.521-7.643A4.376,4.376,0,0,1,5.322,5.094c1.707-.677,5.757-.521,7.643-.521s5.942-.15,7.643.521a4.376,4.376,0,0,1,2.465,2.465c.677,1.707.521,5.757.521,7.643S23.75,21.144,23.073,22.846Z" transform="translate(0.005 -2.238)" fill="#fff"/>
</svg>
