<?xml version="1.0" encoding="utf-8"?>
<!-- Generator: Adobe Illustrator 25.4.1, SVG Export Plug-In . SVG Version: 6.00 Build 0)  -->
<svg version="1.1" id="Calque_1" xmlns="http://www.w3.org/2000/svg" xmlns:xlink="http://www.w3.org/1999/xlink" x="0px" y="0px"
	 width="24.8px" height="24.8px" viewBox="0 0 24.8 24.8" style="enable-background:new 0 0 24.8 24.8;" xml:space="preserve">
<path id="Icon_awesome-linkedin-in" d="M5.6,24.8H0.4V8.3h5.2V24.8z M3,6C1.3,6,0,4.7,0,3s1.3-3,3-3c1.7,0,3,1.3,3,3
	C6,4.6,4.6,6,3,6z M24.8,24.8h-5.1v-8.1c0-1.9,0-4.4-2.7-4.4c-2.7,0-3.1,2.1-3.1,4.3v8.2H8.8V8.3h4.9v2.3h0.1c1-1.7,2.9-2.8,4.9-2.7
	c5.2,0,6.2,3.4,6.2,7.9L24.8,24.8L24.8,24.8z"/>
</svg>
