<svg xmlns="http://www.w3.org/2000/svg" width="24.848" height="24.847" viewBox="0 0 24.848 24.847">
  <path id="Icon_awesome-linkedin-in" data-name="Icon awesome-linkedin-in" d="M5.562,24.848H.41V8.259H5.562ZM2.983,6A3,3,0,1,1,5.967,2.984,3.009,3.009,0,0,1,2.983,6ZM24.842,24.848H19.7V16.772c0-1.925-.039-4.393-2.678-4.393-2.678,0-3.089,2.091-3.089,4.254v8.214H8.789V8.259h4.941v2.263H13.8a5.413,5.413,0,0,1,4.874-2.679c5.214,0,6.172,3.433,6.172,7.892v9.113Z" transform="translate(0 -0.001)" fill="#fff"/>
</svg>
