<?xml version="1.0" encoding="utf-8"?>
<!-- Generator: Adobe Illustrator 25.4.1, SVG Export Plug-In . SVG Version: 6.00 Build 0)  -->
<svg version="1.1" id="Calque_1" xmlns="http://www.w3.org/2000/svg" xmlns:xlink="http://www.w3.org/1999/xlink" x="0px" y="0px"
	 width="262.7px" height="19.8px" viewBox="0 0 262.7 19.8" style="enable-background:new 0 0 262.7 19.8;" xml:space="preserve">
<g id="Groupe_2" transform="translate(-136.891 -564.452)">
	<path id="Tracé_1" style="fill:#FFFFFF;" d="M148.1,579.4l2.6,0.9c-0.4,0.6-0.9,1.2-1.4,1.8c-2.8,2.8-7.4,2.8-10.3,0
		c-2.8-2.8-2.8-7.4,0-10.3c2.8-2.8,7.4-2.8,10.3,0c0,0,0,0,0,0c0.5,0.6,1,1.1,1.4,1.7l-2.6,1c-0.3-0.4-0.6-0.7-0.7-0.8
		c-1.8-1.8-4.7-1.8-6.4,0c-1.8,1.8-1.8,4.7,0,6.4c0.9,0.8,2,1.3,3.2,1.3c1.2,0,2.4-0.5,3.2-1.3C147.5,580.1,147.7,579.8,148.1,579.4
		z"/>
	<path id="Tracé_2" style="fill:#FFFFFF;" d="M172.7,571.7v-0.9h2.7v13.1h-2.7v-1.6c-1.1,1.3-2.7,2-4.4,2c-4,0-7.3-3.2-7.3-7.3
		c0-4,3.2-7.3,7.3-7.3c0,0,0,0,0,0C170,569.7,171.6,570.4,172.7,571.7z M172.7,577.9V576c-0.2-0.9-0.6-1.6-1.2-2.2
		c-1.8-1.8-4.7-1.8-6.4,0c-1.8,1.8-1.8,4.7,0,6.4c1.8,1.8,4.6,1.8,6.4,0C172.1,579.6,172.6,578.8,172.7,577.9L172.7,577.9z"/>
	<path id="Tracé_3" style="fill:#FFFFFF;" d="M189.5,572.5c0.8-1.2,2.2-2,3.6-2.1v2.7c-0.9,0-1.7,0.3-2.3,0.9
		c-0.8,0.8-1.3,1.9-1.3,3v6.8h-2.6v-13.1h2.6L189.5,572.5z"/>
	<path id="Tracé_4" style="fill:#FFFFFF;" d="M207.3,580.9c0.7,0.5,1.6,0.7,2.4,0.6c1.2,0,2.4-0.5,3.2-1.3c0.1-0.1,0.3-0.4,0.7-0.8
		l2.6,0.9c-0.4,0.6-0.9,1.2-1.4,1.8c-2.8,2.8-7.4,2.8-10.3,0c-2.8-2.8-2.8-7.4,0-10.3c2.6-2.6,6.7-2.8,9.6-0.6
		c0.2,0.2,0.4,0.4,0.6,0.6c0.1,0.1,0.3,0.4,0.7,0.8l-1.3,1.3L207.3,580.9z M211.7,572.7c-0.6-0.3-1.3-0.4-2-0.3
		c-2.5,0-4.5,2-4.5,4.6c-0.1,0.7,0,1.4,0.3,2L211.7,572.7z"/>
	<path id="Tracé_5" style="fill:#FFFFFF;" d="M229.9,573.4v10.5h-2.7v-10.5h-1.2v-2.6h1.2v-2.4c0-1.1,0.5-2.1,1.3-2.8
		c0.7-0.7,1.7-1.1,2.8-1.1c0.8,0.1,1.6,0.2,2.4,0.5l-0.9,2.5c-0.4-0.2-0.9-0.4-1.4-0.5c-0.4,0-0.8,0.2-1,0.4c-0.3,0.3-0.4,0.6-0.4,1
		v2.3h2.4v2.6L229.9,573.4z"/>
	<path id="Soustraction_2" style="fill:#FFFFFF;" d="M246.6,584L246.6,584c-1.2-0.3-2.2-1-3.1-1.9c-1.4-1.3-2.2-3.2-2.1-5.1
		c0-1.9,0.7-3.8,2.1-5.1c1.3-1.4,3.2-2.2,5.1-2.1c1.9,0,3.8,0.7,5.1,2.1c1.4,1.4,2.2,3.2,2.1,5.1c0,0.3,0,0.5,0,0.7l-2.7,0
		c0-0.2,0.1-0.5,0.1-0.7c0-1.2-0.5-2.4-1.3-3.2c-0.8-0.9-2-1.4-3.2-1.3c-1.2,0-2.4,0.5-3.2,1.3c-0.9,0.8-1.3,2-1.3,3.2
		c0,1.2,0.5,2.4,1.3,3.2c0.7,0.7,1.5,1.1,2.5,1.3C247.5,582.4,247,583.2,246.6,584L246.6,584z"/>
	<path id="Tracé_7" style="fill:#FFFFFF;" d="M269.2,572.5c0.8-1.2,2.2-2,3.6-2.1v2.7c-0.9,0-1.7,0.3-2.3,0.9
		c-0.8,0.8-1.3,1.9-1.3,3v6.8h-2.6v-13.1h2.6L269.2,572.5z"/>
	<path id="Tracé_8" style="fill:#FFFFFF;" d="M283.4,570.8h2.6v1.2c0.4-1.2,1.6-2,2.9-1.9c1.2-0.1,2.3,0.8,2.4,2c0,0.1,0,0.1,0,0.2
		c0.4-1.5,1.6-2.2,3.4-2.2c1.9,0,2.8,1.1,2.8,3.4v10.5H295v-9.2c0-1.3-0.5-1.9-1.6-1.9c-0.4,0-0.8,0.2-1.1,0.5
		c-0.3,0.3-0.5,1.3-0.5,3.1v7.6h-2.6l0-9.2c0-1.3-0.5-1.9-1.6-1.9c-0.4,0-0.8,0.2-1.1,0.5c-0.4,0.6-0.5,1.4-0.5,2.1v8.6h-2.6
		L283.4,570.8z"/>
	<path id="Tracé_9" style="fill:#FFFFFF;" d="M320.4,571.7v-0.9h2.7v13.1h-2.7v-1.6c-1.1,1.3-2.7,2-4.4,2c-4,0-7.3-3.2-7.3-7.3
		c0-4,3.2-7.3,7.3-7.3c0,0,0,0,0,0C317.7,569.7,319.3,570.4,320.4,571.7z M320.4,577.9V576c-0.2-0.9-0.6-1.6-1.2-2.2
		c-1.8-1.8-4.7-1.8-6.4,0c-1.8,1.8-1.8,4.7,0,6.4c1.8,1.8,4.6,1.8,6.4,0C319.8,579.6,320.3,578.8,320.4,577.9L320.4,577.9z"/>
	<path id="Tracé_10" style="fill:#FFFFFF;" d="M337.2,574.3v9.6h-2.7v-13.1h2.7v1.5c0.5-1.4,1.8-2.4,3.3-2.2
		c1.3-0.1,2.6,0.5,3.4,1.5c0.9,1.1,1.3,2.4,1.3,3.8v8.5h-2.6v-8.4c0-0.7-0.3-1.4-0.8-1.9c-1.1-1.1-2.8-1.1-3.9,0
		C337.5,573.7,337.3,574,337.2,574.3z"/>
	<path id="Tracé_11" style="fill:#FFFFFF;" d="M367,579.4l2.6,0.9c-0.4,0.6-0.9,1.2-1.4,1.8c-2.8,2.8-7.4,2.8-10.3,0
		c-2.8-2.8-2.8-7.4,0-10.3s7.4-2.8,10.3,0c0,0,0,0,0,0c0.5,0.6,1,1.1,1.4,1.7l-2.6,1c-0.3-0.4-0.6-0.7-0.7-0.8
		c-1.8-1.8-4.7-1.8-6.4,0c-1.8,1.8-1.8,4.7,0,6.4c0.9,0.8,2,1.3,3.2,1.3c1.2,0,2.4-0.5,3.2-1.3C366.5,580.1,366.7,579.8,367,579.4z"
		/>
	<path id="Tracé_12" style="fill:#FFFFFF;" d="M384.4,580.9c0.7,0.5,1.6,0.7,2.4,0.6c1.2,0,2.4-0.5,3.2-1.3
		c0.1-0.1,0.3-0.4,0.7-0.8l2.6,0.9c-0.4,0.6-0.9,1.2-1.4,1.8c-2.8,2.8-7.4,2.8-10.3,0c-2.8-2.8-2.8-7.4,0-10.3
		c2.6-2.6,6.7-2.8,9.6-0.6c0.2,0.2,0.4,0.4,0.6,0.6c0.1,0.1,0.3,0.4,0.7,0.8l-1.3,1.3L384.4,580.9z M388.8,572.7
		c-0.6-0.3-1.3-0.4-2-0.3c-2.5,0-4.5,2-4.5,4.6c-0.1,0.7,0,1.4,0.3,2L388.8,572.7z"/>
	<circle id="Ellipse_1" style="fill:#F75322;" cx="397.9" cy="582.2" r="1.7"/>
</g>
</svg>
