<?xml version="1.0" encoding="utf-8"?>
<!-- Generator: Adobe Illustrator 25.4.1, SVG Export Plug-In . SVG Version: 6.00 Build 0)  -->
<svg version="1.1" id="Calque_1" xmlns="http://www.w3.org/2000/svg" xmlns:xlink="http://www.w3.org/1999/xlink" x="0px" y="0px"
	 width="127.3px" height="146.2px" viewBox="0 0 127.3 146.2" style="enable-background:new 0 0 127.3 146.2;" xml:space="preserve"
	>
<style type="text/css">
	.st0{fill:#F3B4AB;}
	.st1{fill:#F75322;}
	.st2{fill:#FFFFFF;}
</style>
<g id="Groupe_60" transform="translate(169.46 833.916)">
	<g>
		<g>
			<path class="st0" d="M-134.5-826.5c-11,0-20.8,5.3-26.9,13.5c1.1,0.8,1.9,2.1,1.9,3.5c0,2.5-2.2,4.5-5,4.5
				c-0.4,0-0.8-0.1-1.2-0.2c-1.5,3.8-2.3,7.8-2.3,12.1c0,18.5,15,33.5,33.5,33.5c18.5,0,33.5-15,33.5-33.5
				C-101-811.5-116-826.5-134.5-826.5z"/>
			<path id="Tracé_38" class="st0" d="M-42.2-795.9l-35.9,20.8v-41.5L-42.2-795.9z"/>
		</g>
		<path id="Tracé_40" class="st1" d="M-168.9-756.7c0,17.5,14.2,31.6,31.6,31.6s31.6-14.2,31.6-31.6H-168.9z"/>
		<path id="Tracé_39" class="st2" d="M-117.5-694.8c0,0.5,0,0.9,0.1,1.4l7.9-0.9c0-0.2,0-0.3,0-0.5c0-15,12.2-27.2,27.2-27.2
			c15,0,27.2,12.2,27.2,27.2c0,0.2,0,0.3,0,0.5l7.9,0.9c0-0.5,0.1-0.9,0.1-1.4c0-19.4-15.8-35.2-35.2-35.2S-117.5-714.2-117.5-694.8
			"/>
		<g>
			<path d="M-156.1-751.8c-0.4,0-0.8-0.1-1.1-0.4c-0.6-0.6-0.6-1.5,0-2.1l3.6-3.6c0.6-0.6,1.5-0.6,2.1,0s0.6,1.5,0,2.1l-3.6,3.6
				C-155.3-752-155.7-751.8-156.1-751.8z"/>
			<path d="M-150.3-757.3c-0.4,0-0.7-0.1-1-0.4c-0.6-0.6-0.6-1.5,0-2.1l1.8-1.8c0.6-0.6,1.5-0.6,2.1,0c0.6,0.6,0.6,1.5,0,2.1
				l-1.8,1.8C-149.5-757.4-149.9-757.3-150.3-757.3z"/>
			<path d="M-157.5-756.4c-0.4,0-0.7-0.1-1-0.4c-0.6-0.6-0.6-1.5,0-2.1l1.8-1.8c0.6-0.6,1.5-0.6,2.1,0c0.6,0.6,0.6,1.5,0,2.1
				l-1.8,1.8C-156.8-756.5-157.1-756.4-157.5-756.4z"/>
			<path d="M-153.4-760.4c-0.4,0-0.8-0.2-1.1-0.5c-0.6-0.6-0.6-1.5,0-2.1l0.9-0.9c0.6-0.6,1.5-0.6,2.1,0c0.6,0.6,0.6,1.5,0,2.1
				l-0.9,0.9C-152.6-760.5-153-760.4-153.4-760.4z"/>
			<path d="M-143.9-822.4c-0.4,0-0.8-0.1-1.1-0.4c-0.6-0.6-0.6-1.5,0-2.1l3.6-3.6c0.6-0.6,1.5-0.6,2.1,0c0.6,0.6,0.6,1.5,0,2.1
				l-3.6,3.6C-143.1-822.5-143.5-822.4-143.9-822.4z"/>
			<path d="M-142.8-818.9c-0.4,0-0.8-0.1-1.1-0.4c-0.6-0.6-0.6-1.5,0-2.1l3.5-3.5c0.6-0.6,1.5-0.6,2.1,0c0.6,0.6,0.6,1.5,0,2.1
				l-3.5,3.5C-142-819-142.4-818.9-142.8-818.9z"/>
			<path d="M-148.2-823.3c-0.4,0-0.7-0.1-1-0.4c-0.6-0.6-0.6-1.5,0-2.1l1.8-1.8c0.6-0.6,1.5-0.6,2.1,0c0.6,0.6,0.6,1.5,0,2.1
				l-1.8,1.8C-147.4-823.4-147.8-823.3-148.2-823.3z"/>
			<path d="M-137.6-829.4c-0.4,0-0.8-0.2-1.1-0.5c-0.6-0.6-0.6-1.5,0-2.1l0.9-0.9c0.6-0.6,1.5-0.6,2.1,0c0.6,0.6,0.6,1.5,0,2.1
				l-0.9,0.9C-136.8-829.5-137.2-829.4-137.6-829.4z"/>
		</g>
	</g>
	<g>
		<path id="Tracé_41" d="M-138.1-695.2c-0.1,0-0.3-0.1-0.3-0.3c0,0,0,0,0,0l7.2-54.8c0-0.1,0.2-0.2,0.3-0.2c0.1,0,0.2,0.2,0.2,0.3
			c0,0,0,0,0,0l-7.2,54.8C-137.8-695.3-137.9-695.2-138.1-695.2"/>
		<path id="Tracé_42" d="M-85.8-687.7c-0.1,0-0.2-0.1-0.3-0.2c-0.7-5-1.2-10.1-1.6-15.1c-0.4-4.5-0.6-9.1-0.8-13.6
			c0-0.1,0.1-0.3,0.3-0.3c0,0,0,0,0,0c0.1,0,0.3,0.1,0.3,0.3c0.1,4.5,0.4,9.1,0.8,13.6c0.4,5,1,10.1,1.6,15
			C-85.5-687.8-85.6-687.7-85.8-687.7C-85.8-687.7-85.8-687.7-85.8-687.7L-85.8-687.7"/>
		<path id="Tracé_43" d="M-88.1-736.2c0,2-0.1,4-0.1,6c-0.1,3.6-0.1,7.2-0.2,10.7c-9.6-2.8-16.6-10.9-18-20.7l2,0.6
			c5.4,1.5,10.9,2.2,16.5,2.1C-88-737.1-88-736.7-88.1-736.2"/>
		<path id="Tracé_44" d="M-85.8-737.3c-0.1,0-0.3-0.1-0.3-0.3c0-0.1,0.1-0.2,0.2-0.3c7.8-0.3,16.1-2.3,16.8-5.9
			c0.3-1.5-0.5-3.9-1.3-6.1c-0.9-2.6-1.3-4.1-0.7-4.7c0.1-0.1,0.2-0.1,0.2-0.2c0.2-0.1,0.5-0.3,0.6-0.5c0.3-0.3,0.4-0.6,0.4-1
			c0-0.4-0.6-0.9-1.6-1.2c-0.1-0.1-0.2-0.2-0.2-0.3c0-0.1,0.1-0.2,0.2-0.2c1.4-0.1,2.5-1.8,2.7-2.2c0.6-1,0.8-1.7,0.6-2
			c-0.1-0.1-0.3-0.2-0.5-0.2c-0.4,0-0.7-0.2-0.9-0.5c-0.2-0.3-0.2-0.7,0-1c0.2-0.8,0-1.7-0.6-3.3c0-0.1,0-0.2,0-0.2
			c0-0.1,0.1-0.1,0.2-0.1c1.4-0.3,2.8-1,3.9-2c0.6-0.6,2.2-2.1,2-3.8c-0.1-0.7-0.5-1.1-1.3-1.8c-0.6-0.5-1.3-1.1-1.8-1.7
			c-0.6-0.6-1.1-1.3-1.6-2c-0.4-0.6-1.1-1.5-2.1-2.9c-0.7-1-1.8-2.5-3.1-4.2c0-0.1-0.1-0.1,0-0.2l0.6-4.8c0.1-0.2,0.1-0.5,0.1-0.8
			c0-0.3-0.1-0.6-0.3-0.8c-0.3-0.4-3.8-10.2-6.8-18.3c-0.7-1.7-1.5-3.2-2.6-4.7c-7-9.6-31.4-15.6-49.5-4
			c-10.1,6.4-16.8,17.1-18,29.1c-2,21.1,14.8,34.3,15.5,34.9c2.4,1.9,4.9,3.6,7.3,5.2c0.1,0.1,0.2,0.2,0.1,0.4s-0.2,0.2-0.4,0.1
			c-2.5-1.6-4.9-3.3-7.3-5.2c-0.7-0.6-17.7-13.9-15.7-35.4c1.3-12.1,8-22.9,18.3-29.5c18.3-11.7,43.1-5.6,50.2,4.1
			c1.1,1.5,2,3.1,2.7,4.8c5.9,16.3,6.6,18,6.7,18.2c0.2,0.3,0.3,0.7,0.4,1.1c0,0.3,0,0.6-0.1,0.9l-0.6,4.6c1.3,1.7,2.3,3.1,3,4.2
			c1,1.4,1.6,2.3,2.1,2.9c0.5,0.7,1,1.4,1.5,2c0.6,0.6,1.2,1.2,1.8,1.7c0.9,0.8,1.4,1.2,1.5,2.1c0.3,1.9-1.5,3.6-2.1,4.2
			c-1.1,1-2.4,1.7-3.8,2c0.5,1,0.6,2.2,0.5,3.3c-0.1,0.3-0.1,0.5,0,0.6c0.1,0.2,0.3,0.2,0.5,0.2c0.3,0,0.6,0.1,0.8,0.4
			c0.5,0.6,0,1.8-0.5,2.6c-0.5,0.9-1.3,1.7-2.3,2.2c0.8,0.4,1.2,0.9,1.3,1.4c0,0.5-0.2,1-0.5,1.4c-0.2,0.3-0.5,0.5-0.8,0.7
			c-0.1,0-0.1,0.1-0.2,0.1c-0.4,0.4,0.3,2.5,0.8,4.1c0.7,2.2,1.6,4.8,1.3,6.4C-69.3-739.5-78.3-737.6-85.8-737.3L-85.8-737.3z"/>
		<path id="Tracé_45" d="M-80.3-757.3c-0.1,0-0.3-0.1-0.3-0.3c0-0.1,0.1-0.2,0.2-0.3l8.8-0.2c0.1,0,0.3,0.1,0.3,0.3
			c0,0.1-0.1,0.2-0.2,0.3L-80.3-757.3L-80.3-757.3z"/>
	</g>
	<g>
		<path id="Tracé_46" d="M-120.3-776.6c-1,3.3-2.4,4.4-2.2,7.3c0.1,1,0.1,1.7,0.6,2c2.3,1.2,13.4-10.9,10.8-15.8
			c-0.8-1.4-2.3-2.2-3.9-2.2c-2,0.1-3.4,2.2-3.8,2.8C-120.1-780.6-119.3-779.9-120.3-776.6"/>
		<g>
			<path id="Union_1" class="st1" d="M-129.4-773.9c-1.7-0.6-3.3-1.7-4.4-3.1c-0.3-0.4-0.9-1.3-1.4-2.2c-0.2-0.3-0.3-0.6-0.4-0.7
				c-0.4-0.6-0.4-0.8-0.7-0.9c-0.4-0.2-0.9-0.3-1.4-0.2c-0.4,0.1-0.8,0.1-1.3,0c-2.5-0.3-4.1-2.6-4.7-3.5c-0.9-1.2-1.2-2.8-1.9-5.9
				c-0.5-1.7-0.7-3.4-0.7-5.2c0.2-1.1,0.5-2.1,1-3.1c0.2-0.6,0.5-1.3,0.9-2.2c0.8-1.9,1.2-2.9,1.4-3.6c0.2-0.6,0.5-1.2,0.8-1.8
				c1-1.8,2.3-3.5,3.7-5c1.1-1.2,2.3-2.3,3.5-3.3c1.4-1.2,2.9-2.4,4.5-3.3c0.4-0.2,1.7-0.7,4.6-2c1.5-0.7,3.2-1.3,4.8-1.6
				c1-0.1,2-0.2,3,0c2.3,0.2,4.5,0.2,6.8,0.1c2.4-0.2,4.8,0,7.1,0.5c2.8,0.7,5.5,1.7,8,3.2c3.2,1.8,6.1,4.1,8.7,6.7
				c3.4,3.4,5.1,5.1,6,8.1c0.4,1.3,1.5,4.9-0.4,8.1c-2.1,3.7-7.1,4.6-7.3,4.7c-0.9,0.1-1.9,0.2-2.8,0.2c-1.5,0-2.6,0-3.4,0.9
				c-0.4,0.4-0.6,0.9-0.8,1.4c-0.1,0.5-0.1,1,0.1,1.5c0.2,0.5,0.2,1.1-0.1,1.6c-0.3,0.5-0.8,0.8-1.4,0.8c-0.6,0.1-1.1,0.3-1.7,0.5
				c-0.2,0.1-0.4,0.2-0.6,0.3c-0.2,0.1-0.3,0.2-0.4,0.3c-0.3,0.2-0.8,0.5-1.7,0.9c-1.7,0.9-2.6,1.3-3.4,1.4
				c-1.2-0.1-2.4-0.5-3.4-1.1c-1-0.4-1.6-0.7-2-1c-0.5-0.3-1.1-0.5-1.7-0.6c-0.9-0.3-1.9-0.4-2.8-0.1c-0.9,0.4-1.2,1.3-1.6,2.7
				c-0.3,1.7-1.1,3.3-2.3,4.5c-1.5,1.3-3.2,1.6-5.4,2c-0.9,0.2-1.9,0.3-2.8,0.4C-128.1-773.6-128.8-773.7-129.4-773.9z M-124.8-775
				c2.1-0.4,3.6-0.7,4.9-1.8c1.1-1.1,1.8-2.5,2-4c-0.2,1.5-0.9,2.9-2,4C-121.2-775.7-122.7-775.4-124.8-775
				c-1.4,0.4-2.9,0.4-4.3,0.1C-127.7-774.5-126.2-774.6-124.8-775z M-133-777.6c1,1.3,2.3,2.2,3.8,2.7
				C-130.7-775.4-132-776.3-133-777.6c-0.2-0.3-0.6-0.8-1-1.5C-133.5-778.4-133.2-777.9-133-777.6L-133-777.6z M-134.5-780
				c-0.1-0.2-0.2-0.3-0.3-0.4C-134.7-780.3-134.6-780.2-134.5-780L-134.5-780z M-134.8-780.4c-0.1-0.1-0.2-0.3-0.2-0.4
				C-134.9-780.7-134.9-780.6-134.8-780.4L-134.8-780.4z M-115.7-784.2c-1.3,0.5-1.7,1.7-2,3C-117.4-782.5-117-783.7-115.7-784.2
				c0.4-0.2,0.9-0.2,1.3-0.2c0.7,0,1.4,0.1,2.1,0.3c-0.7-0.2-1.4-0.3-2.1-0.3C-114.9-784.4-115.3-784.4-115.7-784.2z M-105.4-781.5
				c1.1-0.2,2.1-0.6,3-1.2c0.9-0.5,1.3-0.7,1.6-0.9c0.4-0.2,0.8-0.4,1.2-0.6c0.6-0.2,1.2-0.4,1.8-0.6c0.6-0.1,0.7-0.2,0.8-0.3
				c-0.1,0.1-0.2,0.2-0.8,0.3c-0.6,0.1-1.2,0.3-1.8,0.6c-0.4,0.2-0.8,0.4-1.2,0.6c-0.3,0.2-0.7,0.5-1.6,0.9
				C-103.3-782.1-104.3-781.7-105.4-781.5c-1-0.2-2-0.5-2.8-0.9C-107.3-781.9-106.4-781.6-105.4-781.5z M-135.7-781.7
				c0.1,0.1,0.1,0.1,0.2,0.2C-135.6-781.6-135.7-781.7-135.7-781.7c-0.6-0.4-1.4-0.5-2.1-0.4c-0.4,0-0.7,0.1-1.1,0
				c-2-0.2-3.3-2.1-3.9-3c0.6,0.8,2,2.7,3.9,3c0.4,0,0.7,0,1.1,0c0.2,0,0.4,0,0.6,0C-136.7-782.2-136.2-782-135.7-781.7
				L-135.7-781.7z M-110.4-783.4c0.4,0.2,1,0.5,1.9,0.9C-109.3-782.9-109.9-783.2-110.4-783.4c-0.6-0.3-1.2-0.5-1.8-0.7
				C-111.6-783.9-111-783.7-110.4-783.4z M-97.1-786c0.1,0.4,0.1,0.6,0,0.8C-96.9-785.4-97-785.6-97.1-786c-0.2-0.6-0.2-1.3-0.1-2
				C-97.3-787.3-97.3-786.6-97.1-786z M-142.9-785.1c-0.7-1.1-1.1-2.6-1.7-5.5C-143.9-787.7-143.6-786.2-142.9-785.1L-142.9-785.1z
				 M-96.1-789.8c-0.5,0.5-0.9,1.1-1.1,1.8C-96.9-788.7-96.6-789.3-96.1-789.8c1.1-1.2,2.6-1.2,4.2-1.2C-93.5-791-95-791-96.1-789.8
				L-96.1-789.8z M-82.7-795.4c-1.9,3.3-6.4,4.1-6.5,4.1c-0.9,0.1-1.8,0.2-2.7,0.2c0.9,0,1.8,0,2.7-0.2
				C-89.1-791.3-84.6-792.1-82.7-795.4c0.9-1.8,1.2-3.9,0.6-5.9C-81.6-799.3-81.8-797.2-82.7-795.4L-82.7-795.4z M-145.2-795.5
				c0,0.2,0,0.4,0,0.6C-145.2-795.2-145.2-795.4-145.2-795.5z M-141.2-805.8l0.1-0.1L-141.2-805.8z M-96.7-816.9L-96.7-816.9
				L-96.7-816.9z M-104.4-820c0.3,0.1,0.6,0.1,0.8,0.2C-103.8-819.9-104.1-819.9-104.4-820c-0.6-0.1-1.1-0.2-1.6-0.3
				C-105.5-820.2-105-820.1-104.4-820z M-106.1-820.3L-106.1-820.3z M-118.1-820.5l0.4,0L-118.1-820.5c-0.1,0-0.2,0-0.3,0
				C-118.4-820.5-118.2-820.5-118.1-820.5L-118.1-820.5z"/>
			<g>
				<path d="M-84.4-807.1c-0.2,0-0.3,0.1-0.4,0.2c-0.1,0.3-0.5,0.4-0.8,0.4c-0.3,0.1-0.7,0.1-1,0.1c-0.6,0-1.3,0-1.9,0
					c-1.2,0.2-2.3,0.8-3,1.7c-0.1,0.1-0.1,0.2-0.1,0.3c0,0.1,0,0.3,0.1,0.3c0.4,0.2,0.8,0.3,1.2,0.3c0.4,0,0.8,0.1,1.2,0.2
					c0.8,0.2,1.5,0.6,2.2,1.1c1.3,1.1,1.8,2.8,1.3,4.4c-0.1,0.4,0.5,0.5,0.6,0.2c0.5-1.7,0.1-3.6-1.2-4.8c-0.6-0.6-1.4-1.1-2.2-1.4
					c-0.4-0.1-0.8-0.3-1.3-0.3c-0.4,0-0.7-0.1-1.1-0.2c0.4-0.4,0.8-0.7,1.3-1c0.6-0.3,1.3-0.4,2-0.3c0.7,0,1.3,0,2-0.1
					c0.5-0.1,1.2-0.3,1.3-0.9l0,0C-84.2-806.9-84.3-807.1-84.4-807.1z"/>
				<path d="M-85.8-796.6c-0.7,1.7-2.8,2-4.2,2.6c-1.5,0.6-2.7,1.6-3.6,2.9c-0.2,0.3,0.3,0.6,0.5,0.3c1.1-1.4,2.5-2.5,4.2-3
					c1.5-0.5,3.1-1.1,3.7-2.7l0,0C-85.1-796.9-85.7-797-85.8-796.6z"/>
				<path d="M-91.6-798.1c-0.2,0.3-0.2,0.7-0.4,1c-0.2,0.4-0.4,0.7-0.6,1c-1.2,1.3-3,1.7-4.6,2l0,0c-0.4,0.1-0.2,0.7,0.2,0.6
					c1.6-0.2,3.2-0.8,4.5-1.8c0.5-0.5,0.9-1,1.2-1.7c0.1-0.4,0.2-0.7,0.5-1c0.3-0.2,0.7-0.3,1.1-0.3c0.4,0,0.4-0.6,0-0.6
					C-90.5-799.1-91.2-798.8-91.6-798.1z"/>
				<path d="M-89.1-802.7c0.2-0.4-0.4-0.7-0.5-0.3l-0.5,1c-0.1,0.2-0.3,0.8-0.5,0.9c-0.2,0-0.5-0.2-0.7-0.2c-0.2,0-0.4,0-0.5,0.1
					c-0.4,0.3-0.3,0.9-0.6,1.2c-0.3,0.2-0.6,0.4-0.9,0.4c-0.2,0-1.2,0.3-1.2-0.1c0-0.4-0.6-0.4-0.6,0c0,0.3-0.1,0.6-0.3,0.8
					c-0.5,0.7-1.5,0.9-2.2,0.4c-0.3-0.2-0.6,0.3-0.3,0.5c0.3,0.2,0.7,0.3,1.1,0.4c0.9,0.1,1.8-0.5,2.1-1.3c0.4,0.1,0.9,0.1,1.2,0
					c0.7,0,1.4-0.4,1.8-1c0.1-0.2,0.1-0.3,0.2-0.5c0.1-0.2,0.1-0.3,0.4-0.2c0.3,0.1,0.6,0.1,0.9,0.1c0.3-0.2,0.5-0.5,0.6-0.8
					C-89.5-801.8-89.3-802.2-89.1-802.7L-89.1-802.7z"/>
				<path d="M-100.2-799c-0.1,0.2-0.3,0.4-0.5,0.6c-0.1,0.1-0.2,0.2-0.2,0.3l-0.1,0.1c-0.1,0-0.3,0-0.3,0.2c0,0.1,0,0.2,0,0.2
					c0.1,0.2,0.3,0.3,0.5,0.2c0.3-0.1,0.5-0.4,0.7-0.7c0.4-0.5,0.8-1,1.1-1.6c0.4-0.5,0.7-1.1,0.7-1.8c-0.1-0.6-0.4-1.1-0.8-1.5
					c-0.3-0.3-0.7,0.2-0.4,0.4c0.3,0.3,0.6,0.6,0.6,1c-0.1,0.5-0.2,0.9-0.5,1.3C-99.7-799.8-99.9-799.4-100.2-799z M-100.7-797.7
					C-100.7-797.7-100.7-797.7-100.7-797.7C-100.7-797.7-100.7-797.7-100.7-797.7L-100.7-797.7z"/>
				<path d="M-93.3-807.9c-0.1-1-0.8-1.3-1.6-1.7c-0.9-0.4-1.9-0.7-2.9-0.8c-0.4-0.1-0.6,0.5-0.2,0.6c1,0.2,2,0.5,2.9,0.9
					c0.4,0.1,0.8,0.4,1,0.8c0.2,0.5,0.2,1,0.1,1.5c-0.1,1.6-0.3,3.6,1.3,4.5l0,0c0.3,0.2,0.7-0.3,0.3-0.5
					C-94-803.7-93.1-806.3-93.3-807.9z"/>
				<path d="M-90-807.3c-0.2-0.9-0.5-1.8-0.9-2.7c-0.2-0.8-0.8-1.4-1.6-1.6c-0.9-0.2-1.8,0-2.6-0.2c-0.9-0.2-1.6-0.8-2-1.6
					c-0.2-0.3-0.8,0-0.5,0.3c0.4,0.7,1,1.3,1.7,1.7c0.8,0.2,1.6,0.3,2.4,0.3c0.5,0,0.9,0.1,1.3,0.3c0.3,0.3,0.6,0.6,0.7,1
					c0.4,0.9,0.7,1.8,0.9,2.7l0,0C-90.5-806.8-89.9-807-90-807.3z"/>
				<path d="M-95.9-814c1.6,0.6,3.7,0.8,5,2c1.1,1,1.4,2.6,2.1,3.9c0.5,0.8,1.7,1.8,2.4,0.6c0.2-0.3-0.3-0.6-0.5-0.3
					c-0.6,1-1.5-0.9-1.7-1.3c-0.3-0.6-0.5-1.2-0.7-1.7c-0.5-1.1-1.4-1.9-2.5-2.4c-1.3-0.6-2.8-0.9-4.2-1.4c-1.4-0.6-2.8-1.4-4-2.4
					l0,0c-0.3-0.2-0.6,0.3-0.3,0.5C-98.9-815.5-97.5-814.6-95.9-814z"/>
				<path d="M-112.9-817.5c0.9-0.3,1.8-0.6,2.6-1c0.9-0.5,1.7-0.9,2.7-1.2c1.6-0.5,3.9-0.4,4.4,1.6c0,0.2,0.2,0.3,0.4,0.2
					c0.2,0,0.3-0.2,0.2-0.4c-0.5-1.8-2.4-2.5-4.1-2.3c-1.1,0.2-2.1,0.6-3.1,1.1c-1,0.5-2.1,1-3.2,1.4l0,0
					C-113.5-817.9-113.3-817.3-112.9-817.5z"/>
				<path d="M-96.7-786.5c-1.5-0.9-2.5-2.6-2.4-4.3c0.2-0.9,0.1-1.9-0.1-2.8c-0.5-1.2-1.7-1.7-2.9-2.1c0-0.1-0.1-0.1-0.1-0.1
					c-0.6-0.6-0.8-1.4-0.5-2.2c0.2-0.6,0.6-1.2,1-1.7c0.4-0.5,0.8-1,1.1-1.6c0.3-0.6,0.5-1.3,0.5-2c0-0.4-0.6-0.4-0.6,0
					c0,0.9-0.3,1.7-0.8,2.4c-0.4,0.6-0.9,1.1-1.3,1.8c-0.6,0.9-0.8,2.2-0.3,3.2c-0.6-0.2-1.2-0.4-1.8-0.6c0,0,0,0,0,0
					c-0.1-1.8,0.1-3.6,0.8-5.2c0.6-1.4,1.1-2.8,1.5-4.3c0.1-0.4,0.1-0.7,0.1-1.1c0.8,0.3,1.7,0.4,2.6,0.4c0.5,0,0.9,0,1.3,0.1
					c0.4,0.1,1,0.1,1.1,0.6s0,1,0.1,1.5c0,0.5,0.1,0.9,0.2,1.4c0.2,0.8,0.5,1.6,1.1,2.1l0,0c0.3,0.3,0.7-0.2,0.4-0.4
					c-0.6-0.7-1-1.6-1.1-2.6c-0.1-0.5-0.1-1-0.1-1.5c0-0.4-0.1-0.8-0.3-1.1c-0.3-0.3-0.7-0.4-1.1-0.5c-0.5-0.1-0.9-0.1-1.4-0.1
					c-1,0-1.9-0.1-2.8-0.4c-0.1,0-0.2,0-0.3,0c-0.1-0.2-0.2-0.3-0.3-0.5c0.8-0.1,1.5-0.3,2.2-0.7c0.9-0.4,1.6-1.2,2-2.1
					c0.7-1.8-0.1-3.8-1.8-4.6l0,0c-0.4-0.2-0.7,0.4-0.3,0.5c1.5,0.7,2.2,2.4,1.5,3.9c-0.4,0.8-1.1,1.4-1.8,1.7
					c-0.8,0.5-1.7,0.7-2.6,0.6c0,0,0,0,0,0c-0.5-0.3-1.2-0.4-1.7-0.7c-0.6-0.4-0.6-1-1.1-1.5c-0.3-0.3-0.7,0.2-0.4,0.4
					c0.4,0.4,0.5,1,1,1.4c0.4,0.3,0.9,0.5,1.4,0.7c0.6,0.2,1.4,0.5,1.6,1.2c0.1,0.8,0,1.6-0.3,2.4c-0.4,1.4-1.1,2.7-1.5,4
					c-0.4,1.4-0.6,2.8-0.5,4.2c-1.3-0.5-2.5-1.1-3.7-1.9c-0.1-0.7-0.2-1.5-0.1-2.2c0-0.6-0.3-1.1-0.7-1.5c0.3-0.2,0.6-0.4,0.8-0.7
					c0.5-0.9,0.7-2,0.4-3.1c-0.1-1.1-0.6-2.2-1.4-3c-0.5-0.5-1.2-0.8-1.8-1.2c0,0,0,0,0.1,0c0.1-0.1,0.2-0.1,0.3-0.2
					c0.2-0.1,0.3-0.2,0.5-0.3c0.3-0.2,0.7-0.4,1.1-0.5c0.4-0.1,0.8-0.3,1.2-0.3c0.3-0.1,0.7-0.1,1,0c0,0,0,0,0,0
					c0,0.2-0.1,0.3-0.1,0.5c-0.1,1.7,0.5,3.3,1.6,4.5c0.2,0.3,0.7-0.1,0.4-0.4c-1.1-1.2-1.6-2.8-1.4-4.3c0.5-1.5,1.2-3,2.2-4.3v0
					c0.1-0.1,0-0.3-0.1-0.4c-0.1-0.1-0.3,0-0.4,0.1c-0.7,1.2-1.6,2.4-2,3.8c-0.1-0.1-0.3-0.1-0.4-0.1c0,0,0,0,0.1-0.1
					c0.5-0.9,0.5-1.9,0.2-2.8c-0.3-0.8-1-1.4-1.9-1.6c-1-0.2-2,0-3,0.4c-0.8,0.3-1.6,0.8-2.1,1.5h0c-0.2,0.3,0.3,0.6,0.5,0.3
					c0.4-0.6,1-1,1.7-1.2c0.8-0.3,1.6-0.5,2.4-0.4c0.8,0.1,1.4,0.6,1.7,1.2c0.3,0.8,0.3,1.6-0.1,2.3c-0.1,0.1,0,0.3,0.1,0.4
					c-0.1,0-0.3,0-0.4,0.1c-0.5,0.1-0.9,0.2-1.4,0.4c-0.5,0.2-0.9,0.4-1.3,0.7c-0.3,0.2-0.6,0.3-0.8,0.6c-0.2-0.2-0.5-0.3-0.7-0.5
					c-0.5-0.6-0.9-1.2-1.2-1.9c-0.3-0.7-0.8-1.3-1.2-1.9c-0.5-1-1.3-1.8-2.3-2.3c-0.5-0.2-1.1-0.3-1.6-0.3c-0.4,0-0.8-0.1-1.2-0.2
					c-0.2-0.1-0.5-0.2-0.8-0.2c-0.9-0.1-1.6,1.3-1.9,1.9c-0.2,0.4,0.4,0.7,0.5,0.3c0.2-0.4,0.6-1.3,1-1.5c0.4-0.2,1.3,0.2,1.7,0.2
					c1.2,0.2,2.3,0.2,3.2,1.1c0.8,1,1.5,2,2,3.1c0.4,0.9,1,1.8,1.7,2.4c0.8,0.6,1.8,1,2.6,1.7c0.9,0.9,1.4,2.2,1.3,3.4
					c0.1,0.6-0.1,1.3-0.4,1.8c-0.3,0.4-0.8,0.5-1.1,0.9c-0.6,0.5-1,1.1-1.3,1.8c-1-0.7-2-1.4-3.1-1.6c-0.4-0.1-0.8,0-1.1,0
					c-2.6-2.4-5.5-5.5-4.4-9.3c0.1-0.4-0.5-0.5-0.6-0.2c-1.2,3.9,1.7,7.2,4.3,9.7c-0.2,0.1-0.3,0.3-0.4,0.4c-2.3,1.5-0.8,0.1-2,0.5
					c-0.2,0.1-0.4,0.2-0.6,0.3c0,0,0,0-0.1,0c-0.7-0.2-1.4-0.5-2-0.8c0.1,0,0.2-0.1,0.3-0.2c0.3-0.3,0.6-0.7,0.6-1.2
					c0-0.2-0.1-0.3-0.2-0.4c-0.2,0-0.3,0.1-0.4,0.2c0,0.1-0.1,0.2-0.1,0.3c0,0.1,0,0.1-0.1,0.2c-0.1,0.1-0.1,0.2-0.2,0.3
					c0,0-0.1,0.1-0.1,0.1c-0.1,0-0.1,0.1-0.2,0.1c-0.1,0-0.1,0-0.2,0c-0.1,0-0.2,0-0.2,0l0,0c-0.1-0.1-0.2,0-0.3,0
					c-0.8-0.4-1.5-1-1.9-1.8c1.2-1.2,0.3-3.1,0.3-4.6c0-2.2,2.4-3.3,4.2-3.8c1.9-0.6,4,0.2,5,1.9c1.1,1.9,0.6,3.9,0.7,6
					c0,0.4,0.6,0.4,0.6,0c-0.1-2,0.3-3.8-0.5-5.7c-0.5-1.4-1.7-2.4-3.1-2.9c0,0-0.1,0-0.1,0c0-0.1,0-0.2-0.1-0.2
					c-0.7-0.5-1.5-1-2.4-1.3c-0.8-0.4-1.7-0.6-2.7-0.6c-1,0.2-2,0.5-2.9,0.9c-0.8,0.3-1.7,0.7-2.4,1.2c-0.7,0.3-1.2,0.9-1.4,1.6
					c-0.2,0.8,0.4,1.4,0.9,2c0.2,0.2,0.4,0.5,0.4,0.8c0,0.3-0.4,0.8-0.7,0.8c-0.2,0-0.4-0.3-0.6-0.1c-0.4,0.3,0,0.9,0.3,1.3
					c0,0.1,0,0.2,0.2,0.2c0.4,0.2,0.8,0.3,1.2,0.4c0,0,0,0,0,0c0.3,0.6,0.3,1.2,0,1.8c-0.2,0.6-0.5,1.1-1,1.5
					c-0.1,0.1-0.1,0.3,0,0.4c0.1,0.1,0.3,0.1,0.4,0c0.6-0.5,1-1.1,1.2-1.8c0.2-0.6,0.2-1.3,0-1.9c0.8,0,1.5-0.1,2.3-0.4
					c0.1,0.8,0,1.5-0.6,2l0,0c-0.1,0.1-0.1,0.1-0.1,0.2c0,0.1,0,0.1,0,0.2c0.5,0.9,1.3,1.7,2.2,2.2c0.9,0.5,1.8,1,2.8,1.3
					c-0.1,0.1-0.2,0.1-0.2,0.2c-0.5,0.7-1.6,0.9-2.3,0.4c-0.1-0.2-0.3-0.3-0.4-0.5c-0.2-0.1-0.2-0.2-0.5-0.3
					c-0.6-0.2-0.8,0.1-1.3,0.4c-1.4,0.7-1.8,0.8-3.1,0.4c-0.7-0.2-1.3-0.5-1.9-1c-0.9-0.7-1.2-2.1-1.9-3.1c-1.4-2-1.1-3.3-0.1-5.2
					c0,0,0.1,0,0.1-0.1c0.7-0.9,1.4-1.8,1.9-2.7c0.5-0.9,1-1.8,1.4-2.8c0.2-0.5,0.4-0.9,0.8-1.3c0.4-0.4,0.9-0.6,1.5-0.8
					c0.6-0.1,1.1-0.2,1.7-0.1c0.4,0.1,1.2,0.6,0.7,1.1c-0.2,0.3,0.2,0.7,0.4,0.4c0.3-0.4,0.4-0.9,0.1-1.4c-0.2-0.2-0.4-0.4-0.6-0.6
					c1.4-0.6,2.4-1.9,3.9-2.3c1.1-0.2,2.3-0.1,3.3,0.3c1,0.2,1.9,0.9,2.3,1.9c0.1,0.4,0.7,0.2,0.6-0.2c-0.7-2-3.4-2.8-5.4-2.8
					c-1,0.1-2,0.4-2.9,1.1c-0.8,0.7-1.8,1.2-2.8,1.6l0,0c-0.1,0-0.1,0.1-0.1,0.1c-1.1-0.1-2.3,0.2-3.1,1c-0.9,0.8-1.2,2.2-1.7,3.3
					c-0.7,1.2-1.5,2.4-2.3,3.5c-0.1,0-0.1,0.1-0.2,0.1c-0.9,1.6-1.8,3.6-0.7,5.3c0.2,0.3,0.5,0.6,0.7,0.8c0.4,0.5,0.6,1.1,0.7,1.8
					c0.1,0.2,0.2,0.4,0.3,0.6c0.8,0.9,1.8,1.5,2.9,1.9c0.7,0.3,1.5,0.4,2.3,0.3c0.3-0.1,0.7-0.3,1-0.4c2-0.6,1.2-0.4,2.2,0.4
					c0.1,0.1,0.3,0.2,0.4,0.3c0,0,0,0,0,0c0.2,0.8,1,1.2,1.4,1.8c0.5,0.8,0.5,1.8,0,2.6c-0.9,1.5-2.2,2.7-3.7,3.5l0,0
					c0,0,0,0-0.1,0.1c-1.2-0.3-2.4-0.8-3.6-1.2c-0.5-0.1-1.3-0.5-1.7-0.1c-0.4,0.5-0.6,1-0.7,1.6c-0.5-0.4-1-0.6-1.5-0.9
					c-0.6-0.3-1.2-0.5-1.8-0.8c-0.4-0.2-1-0.5-1.2-0.9c1.3-0.4,2.7-0.3,4.1-0.5c1.3-0.2,2.7-0.9,2.8-2.4c1.7,0.1,3.4-0.3,5-1.1l0,0
					c0.1-0.1,0.2-0.3,0.1-0.4c-0.1-0.1-0.3-0.2-0.4-0.1c-0.9,0.5-1.9,0.8-2.9,1c-1,0.1-2.3,0.3-3.1-0.3c-0.7-0.6-0.2-1.6-0.9-2.2
					c-0.2-0.1-0.4-0.2-0.6-0.1c-0.3,0.1-0.7,0.1-1,0c-0.3-0.2-0.5-0.4-0.6-0.7c-0.4-0.9-0.7-1.9-0.8-2.9c-0.1-0.4-0.3-1-0.8-0.9
					c-0.3,0.1-0.7,0.3-1,0.5c-0.5,0.3-1,0.5-1.5,0.7c-0.8,0.3-1.6,0.5-2.4,0.5c0.5-0.8,0.9-1.7,1.2-2.6c0.2-1.2,0.5-2.3,0.9-3.4
					c1.1-2.1,3.4-3.1,5.5-4c0.4-0.2,0.2-0.8-0.2-0.6c-2.1,0.9-4.4,1.9-5.6,3.9c-0.6,1.1-0.9,2.2-1.1,3.4c-0.3,1.3-0.8,2.4-1.5,3.5
					l0,0c-0.1,0.1-0.1,0.3,0,0.4c0,0,0,0,0,0c0,0,0.1,0.1,0.1,0.1c0,0,0,0,0.1,0c0.3,0,0.6,0,0.9,0c-0.7,1.2-2.4,1.5-3.4,2.2
					c-0.8,0.5-1.4,1.2-1.9,2c-1.2,2-0.7,4.8-0.3,7c0.4,2.1,1,4.5,2.7,6c0.8,0.6,1.7,1.1,2.7,1.4c0.9,0.3,3.4,0.7,3.7,1.7
					c0,0.1,0.1,0.1,0.1,0.2c0,0.2,0.1,0.4,0.4,0.4c1.6-0.3,3.2,0.5,4.8,0.7c1.4,0.2,2.9,0.1,4.3-0.1c3.1-0.5,6.2-2.7,9.4-1.9v0
					c0.2,0,0.3-0.1,0.4-0.2c0-0.2-0.1-0.3-0.2-0.4c-3.2-0.8-6.1,1.1-9.1,1.8c-1.8,0.4-3.6,0.4-5.4,0.1c-1.4-0.3-2.7-0.8-4.1-0.6
					c0,0,0-0.1,0-0.1c-0.2-0.7-0.9-1.1-1.6-1.3c-1.1-0.5-2.2-0.7-3.3-1.1c-2.6-1-3.6-3.3-4.1-5.9c-0.5-2.6-1.2-6,0.8-8.2
					c0.9-0.8,1.9-1.5,3.1-1.9c0.8-0.3,1.5-1,1.8-1.8c0.5-0.1,1-0.2,1.5-0.4c0.4-0.2,0.8-0.3,1.2-0.6c0.2-0.1,0.4-0.2,0.6-0.3
					c0.3-0.2,0.4-0.4,0.6-0.1c0.3,0.3,0.2,1.2,0.2,1.5c0.1,0.4,0.2,0.9,0.4,1.3c0,0,0,0,0,0.1c0,0,0,0.1,0,0.1c0,0.8-1.5,1-2,1
					c-0.8,0.1-1.5,0.1-2.3,0.3c-1.2,0.2-2.4,0.8-3.3,1.7c-0.9,0.9-1.5,2.2-1.7,3.5c-0.1,1.5,0.1,2.9,0.7,4.3
					c0.1,0.4,0.7,0.2,0.6-0.2c-0.6-1.4-0.8-3-0.6-4.6c0.3-1.4,1.2-2.6,2.4-3.4c1.3-0.6,2.7-1,4.1-1c0,0,0,0,0.1,0c0,0,0,0,0,0.1
					c0.1,0.5,0.6,0.9,0.8,1.4c-0.1,0.4-0.3,1-0.8,1c-0.3,0-0.6,0-0.9-0.1c-0.3,0-0.5,0-0.8,0.1c-1.1,0.2-2.1,0.9-2.7,1.9
					c-0.2,0.3,0.3,0.7,0.5,0.3c0.6-1,1.7-1.6,2.8-1.7c0.6,0,1.2,0.2,1.8-0.2c0,0,0-0.1,0.1-0.1c-0.1,0.3-0.3,0.6-0.5,0.8
					c-0.1,0.1,0,0.3,0.1,0.4c0.1,0.1,0.3,0,0.4-0.1c0.6-0.6,0.9-1.4,0.8-2.3c0-0.1-0.1-0.2-0.1-0.2c0-0.1,0-0.1-0.1-0.2
					c-0.3-0.4-0.6-0.8-0.8-1.3c0.7-0.1,1.5-0.4,1.8-1c0.3,0.4,0.7,0.6,1.1,0.8c0.3,0.1,1-0.1,1.2,0.2c0.2,0.3,0.1,1,0.3,1.3
					c0.3,0.6,1,1.1,1.7,1.1c-0.2,2.1-3.6,1.9-5.1,2c-0.6,0.1-1.2,0.2-1.7,0.4c-0.1,0-0.1,0-0.2,0.1c-0.9,0.3-1.7,0.8-2.4,1.5
					c-1,1.1-2,2.8-1.5,4.3c0.5,1.6,2.3,2.5,3.6,3.3c0.3,0.2,0.7-0.3,0.3-0.5c-1.4-0.9-3.7-2.1-3.4-4.1c0.4-1.6,1.4-3,2.9-3.7
					c0.1-0.1,0.3-0.1,0.4-0.2c0.3,0.8,1.3,1.2,2,1.5c0.9,0.3,1.7,0.7,2.5,1.2c0,0.1,0,0.2,0,0.3c0.3,0.6,0.6,1.5,0.1,2.1
					c-0.5,0.5-1.2,0.8-1.9,0.8c-1.4,0-2.5-1.4-3-2.6c-0.2-0.4-0.8-0.2-0.6,0.2c0.6,1.5,2.1,3.2,3.9,3c0.9,0,1.7-0.5,2.3-1.2
					c0.2-0.6,0.3-1.2,0.1-1.8c0.5,0.6,0.8,1.3,0.8,2.1c0,0.5-0.1,1-0.4,1.5c-0.4,0.4-0.9,0.6-1.5,0.6c-0.4,0-0.4,0.6,0,0.6
					c1.1,0.1,2-0.6,2.4-1.6c0.1-0.2,0.1-0.5,0.1-0.7c1.8-0.2,3.6,0.5,5.4,0.8c1.5,0.2,3,0,4.4-0.7c2.5-1.3,4.6-4.5,3.5-7.3
					c-0.1-0.4-0.7-0.2-0.6,0.2c1.2,2.9-1.5,6.2-4.1,7c-2.9,0.9-5.7-0.8-8.6-0.5c-0.1-0.6-0.3-1.3-0.6-1.8c-0.2-0.2-0.3-0.4-0.5-0.6
					c0,0,0,0,0,0c0.1-0.4,0.2-1.2,0.5-1.4c0.2-0.2,0.4-0.1,0.6,0c0.2,0.1,0.5,0.1,0.7,0.2c0.8,0.3,1.7,0.6,2.5,0.9
					c1.5,0.6,3.3,0.6,4.8,0.1c3-1.3,4.7-4.5,4.1-7.6l0,0c-0.1-0.4-0.7-0.2-0.6,0.2c0.8,3.3-2.1,7.3-5.7,7.3c-0.2,0-0.4,0-0.6,0
					c1.4-0.9,2.6-2.1,3.5-3.6c0.5-0.8,0.6-1.8,0.2-2.7c-0.2-0.4-0.4-0.7-0.7-1c-0.3-0.3-0.6-0.5-0.8-0.9c0.2,0,0.3,0,0.5-0.1
					c0.2-0.1,0.4-0.2,0.6-0.3c1.2-0.9,0.5-0.8,2.7-1.3c0.5-0.1,1-0.3,1.4-0.6c0.3-0.2,0.6-0.4,0.8-0.5c0.1,0,0.1,0,0.2-0.1
					c0.7-0.3,1.2-0.2,2.1,0.3c0.6,0.3,1.2,0.7,1.7,1.2c2,1.5,4.1,2.8,6.4,3.8c1.3,0.5,2.6,0.9,3.8,1.3c0.7,0.2,1.4,0.6,2,1.1
					c1,1.1,0.4,2.3,0.4,3.5c0,0.2,0,0.5,0.1,0.7c-1.3,0-2.6-0.6-3.5-1.5c-0.8-0.9-0.9-2.1-1.7-3c-0.9-0.9-2.1-1.5-3.3-1.9
					c-1.4-0.5-2.9,0-4.3-0.5c-1.2-0.4-1.9-1.6-3-2c-1.1-0.5-1.7,0.5-1.9,1.5c-0.4,2.8,3.7,2.8,5.3,3.8c0.3,0.2,0.6-0.3,0.3-0.5
					c-1.2-0.6-2.4-1-3.6-1.3c-0.7-0.3-1.4-0.7-1.4-1.6c0-0.9,0.6-1.6,1.5-1c0.7,0.7,1.5,1.2,2.4,1.7c1.2,0.5,2.4,0.1,3.7,0.4
					c1.2,0.3,2.3,0.8,3.3,1.6c1,0.7,1.1,2,1.8,2.9c1.1,1.4,2.7,2.2,4.5,2.2c0.4,1.3,1.3,2.5,2.5,3.2l0,0
					C-96.7-785.7-96.4-786.2-96.7-786.5z M-123.2-814.6c0.9-0.1,1.8,0.1,2.5,0.5c0.6,0.2,1.1,0.5,1.7,0.8c-1.2,0-2.5,0.3-3.6,0.9
					c-0.6,0.3-1.2,0.6-1.6,1.1c0,0,0,0-0.1,0c-1.2-0.2-2.4-0.7-3.5-1.4C-126.3-813.7-124.8-814.3-123.2-814.6z M-125.4-809.2
					c-0.1,0.6,0.1,1.3,0.3,2c-1.1,0.5-2.4,0.5-3.6,0c-0.1-0.1-0.2-0.2-0.3-0.3c0,0,0-0.1,0-0.1c0.1,0,0.2,0,0.3,0
					c0.2-0.1,0.5-0.2,0.6-0.4c0.4-0.4,0.5-1,0.4-1.5c-0.3-0.7-1.1-1.1-1.3-1.8c-0.2-0.6,0.4-1.1,0.9-1.4c0,0.1,0,0.2,0.1,0.2
					c1,0.7,2.2,1.2,3.4,1.5C-125.1-810.4-125.4-809.9-125.4-809.2z M-110-799.3c-0.5-0.4-1.1-0.8-1.6-1.2c0,0,0,0,0-0.1
					c0.1-0.6,0.7-1.1,1.1-1.5c0.4,0.4,0.6,0.9,0.6,1.4c0,0.5,0,1,0,1.5C-109.9-799.2-110-799.2-110-799.3z"/>
				<path d="M-101.4-786.6c-1.8,0.8-3.8,0-4.7-1.7c-0.2-0.9-0.4-1.8-0.3-2.8c-0.1-0.8-0.3-1.5-0.6-2.3c-0.2-0.4-0.7-1.2-1.2-1.2
					c-0.6,0-0.7,0.7-0.8,1.2c-0.1,0.5-0.2,0.9-0.7,1.1c-0.4,0.2-0.9,0.3-1.3,0.3c-0.9,0-1.8-0.2-2.5-0.7l0,0
					c-0.3-0.2-0.6,0.3-0.3,0.5c1.3,0.9,3.1,1.1,4.6,0.4c0.7-0.4,0.7-1,0.9-1.7c0-0.1,0.1-0.2,0.1-0.3c0-0.2,0.1-0.2,0.2,0
					c0.2,0.2,0.4,0.4,0.5,0.7c0.2,0.5,0.4,0.9,0.5,1.4c0.2,1,0.1,1.9,0.3,2.9c0.2,0.7,0.5,1.4,1,1.9c1.2,1.1,3,1.5,4.6,0.8
					C-100.9-786.2-101.1-786.8-101.4-786.6z"/>
				<path d="M-103.4-784c-1.3,0.6-2.8-0.4-3.7-1.3c-0.8-0.9-1.3-2-1.5-3.1c-0.3-1.1-1.1-1.3-2.1-0.9c-0.7,0.3-1.4,0.6-2.1,0.8
					c-1,0.3-1.2-0.6-1.3-1.4c-0.1-0.4-0.7-0.2-0.6,0.2c0,0.6,0.3,1.3,0.8,1.7c0.5,0.3,1.2,0.3,1.7,0c0.7-0.2,1.4-0.7,2.2-0.9
					c0.9-0.2,0.9,1.2,1.1,1.8c0.8,2.2,3.4,4.8,5.9,3.7l0,0C-102.8-783.6-103.1-784.1-103.4-784z"/>
				<path d="M-109.5-784.5c-0.6,0.4-0.8-1.4-1.3-1.6c-0.3-0.1-0.6,0.1-0.9,0.2c-0.4,0.2-0.8,0.3-1.2,0.5c-0.8,0.4-1.7,0.4-2.6,0.1
					c-0.8-0.4-1.5-0.9-2.1-1.4c-0.3-0.3-0.7,0.2-0.4,0.4c0.7,0.6,1.5,1.2,2.3,1.6c0.9,0.4,1.8,0.4,2.7,0c0.5-0.2,0.9-0.4,1.4-0.5
					c0.2-0.1,0.4-0.2,0.6-0.2c0.1,0,0.2,0.6,0.3,0.7c0.2,0.6,0.9,1.2,1.5,0.8h0c0.1-0.1,0.2-0.3,0.1-0.4
					C-109.1-784.6-109.3-784.6-109.5-784.5z"/>
				<path d="M-118.4-784.9c-0.5,0.6-1.3,0.9-2.1,1c-0.8,0-1.5-0.2-2.2-0.6c-1.3-0.7-1.9,0.5-2.6,1.4c-0.3,0.4-0.7,0.9-1.3,0.7
					c-0.4-0.2-0.8-0.4-1.2-0.6c-0.7-0.4-1.4-0.7-2.1-0.9c-1.5-0.4-1.8,2-3.5,1.3c-0.4-0.1-0.5,0.5-0.2,0.6c0.7,0.3,1.4,0.2,2-0.3
					c0.3-0.2,0.5-0.4,0.7-0.7c0.1-0.1,0.2-0.3,0.4-0.4c0.3-0.1,0.8,0.1,1.1,0.2c0.8,0.3,1.6,0.9,2.4,1.2c0.5,0.2,1,0.2,1.5-0.2
					c0.3-0.2,0.6-0.5,0.8-0.9c0.2-0.4,0.5-0.7,0.8-1.1c0.6-0.4,1.7,0.5,2.4,0.6c1.3,0.2,2.5-0.2,3.4-1.1v0
					C-117.7-784.8-118.1-785.2-118.4-784.9z"/>
				<path d="M-117.6-780.9c-1.5,0-3,0.3-4.5,0.8c-1.2,0.6-2.5,1.1-3.9,1.5c-1.6,0.2-3.2,0-4.8-0.5c-1.3-0.5-2.7-0.9-4.2-1.2
					c-0.4,0-0.4,0.6,0,0.6c1.6,0.1,3.1,0.9,4.6,1.3c1.3,0.4,2.7,0.5,4.1,0.4c1.2-0.2,2.4-0.6,3.5-1.2c1.6-0.7,3.3-1.1,5-1.1v0
					C-117.2-780.3-117.2-780.9-117.6-780.9z"/>
				<path d="M-118.6-778.3c-2.8-0.2-5.4,0.9-8.1,1.1c-1.3,0.1-2.6,0-3.9-0.4c-1.2-0.4-2.2-1.2-3.5-1.3c-0.4,0-0.4,0.6,0,0.6
					c1.4,0.1,2.5,1.1,3.8,1.4c1.2,0.3,2.3,0.4,3.5,0.3c2.7-0.2,5.4-1.3,8.1-1.1h0C-118.2-777.6-118.2-778.2-118.6-778.3z"/>
				<path d="M-120.4-776.1c-2-0.4-4,0-6,0.1c-1.1,0.1-2.2,0-3.2-0.1c-0.9-0.1-1.8-0.6-2.7-0.4c-0.2,0-0.3,0.2-0.2,0.4
					c0,0.2,0.2,0.3,0.4,0.2c0.6,0,1.2,0,1.7,0.3c0.4,0.1,0.8,0.1,1.2,0.2c1,0.1,1.9,0.1,2.9,0.1c1.9-0.1,3.9-0.5,5.8-0.1v0
					C-120.2-775.4-120.1-776-120.4-776.1z"/>
			</g>
		</g>
	</g>
</g>
</svg>
