<?xml version="1.0" encoding="utf-8"?>
<!-- Generator: Adobe Illustrator 25.4.1, SVG Export Plug-In . SVG Version: 6.00 Build 0)  -->
<svg version="1.1" id="Calque_1" xmlns="http://www.w3.org/2000/svg" xmlns:xlink="http://www.w3.org/1999/xlink" x="0px" y="0px"
	 width="347px" height="37px" viewBox="0 0 347 37" style="enable-background:new 0 0 347 37;" xml:space="preserve">
<g style="enable-background:new    ;">
	<path style="fill:#F3B4AB;" d="M13.3,8.4h6.1L33,36.7h-6l-2.3-4.8H8.2L6,36.7H0L13.3,8.4z M22.5,27.2l-6.1-12.8l-5.9,12.8H22.5z"/>
	<path style="fill:#F3B4AB;" d="M36.3,8.4H42V24c0,1.3,0.2,2.4,0.5,3.4c0.3,1,0.9,1.8,1.6,2.5c0.7,0.7,1.6,1.2,2.6,1.6
		c1,0.4,2.2,0.5,3.6,0.5c1.3,0,2.5-0.2,3.6-0.5c1-0.4,1.9-0.9,2.6-1.6c0.7-0.7,1.2-1.5,1.6-2.5c0.3-1,0.5-2.1,0.5-3.4V8.4h5.7v16.2
		c0,1.9-0.3,3.5-0.9,5.1c-0.6,1.5-1.5,2.8-2.7,3.9s-2.7,1.9-4.4,2.5c-1.7,0.6-3.7,0.9-5.9,0.9c-2.2,0-4.2-0.3-5.9-0.9
		c-1.7-0.6-3.2-1.4-4.4-2.5s-2.1-2.4-2.7-3.9c-0.6-1.5-0.9-3.2-0.9-5.1V8.4z"/>
	<path style="fill:#F3B4AB;" d="M71.2,8.4h14.4c2.2,0,4,0.2,5.6,0.7c1.6,0.5,2.9,1.1,4,2c1,0.9,1.8,1.9,2.3,3.1
		c0.5,1.2,0.8,2.6,0.8,4.2c0,1-0.1,2-0.4,3c-0.3,0.9-0.6,1.8-1.2,2.6c-0.5,0.8-1.2,1.5-2,2.1C94,26.7,93,27.2,92,27.6l6.1,9h-7
		l-5.3-8h-0.2l-8.7,0v8h-5.7V8.4z M85.7,23.7c1.1,0,2-0.1,2.8-0.4c0.8-0.3,1.5-0.6,2-1.1c0.5-0.5,1-1,1.2-1.7
		c0.3-0.7,0.4-1.4,0.4-2.2c0-1.6-0.5-2.8-1.6-3.7c-1.1-0.9-2.7-1.3-4.9-1.3h-8.8v10.3H85.7z"/>
	<path style="fill:#F3B4AB;" d="M105.1,8.4h24v5h-18.3v5.6H127v4.7h-16.2v7.9h18.7v5h-24.4V8.4z M110.5,3.4L122.7,0l1.3,4.5
		l-12.3,2.9L110.5,3.4z"/>
	<path style="fill:#F3B4AB;" d="M135.8,8.4h5.7v23.2H158v5h-22.1V8.4z"/>
	<path style="fill:#F3B4AB;" d="M162.8,8.4h5.8v28.2h-5.8V8.4z"/>
	<path style="fill:#F3B4AB;" d="M175.9,8.4h24v5h-18.3v5.6h16.2v4.7h-16.2v7.9h18.7v5h-24.4V8.4z"/>
	<path style="fill:#F3B4AB;" d="M218.9,8.4h5.7v23.2h16.4v5h-22.1V8.4z"/>
	<path style="fill:#F3B4AB;" d="M256.3,8.4h6.1L276,36.7h-6l-2.3-4.8h-16.5l-2.2,4.8h-6L256.3,8.4z M265.5,27.2l-6.1-12.8l-5.9,12.8
		H265.5z"/>
	<path style="fill:#F3B4AB;" d="M280.4,8.4h5.7l10.3,10.3l10.3-10.3h5.7v28.2h-5.7V16.4l-10.3,9.9l-10.3-9.9v20.3h-5.7V8.4z"/>
	<path style="fill:#F3B4AB;" d="M329.1,29.7L316.7,8.4h6.5l8.7,16.1l8.6-16.1h6.5l-12.2,21.2v7h-5.7V29.7z"/>
</g>
<g id="Ellipse_20">
	<circle style="fill:#F75322;" cx="50.1" cy="23.2" r="2.5"/>
</g>
</svg>
