<?xml version="1.0" encoding="utf-8"?>
<!-- Generator: Adobe Illustrator 25.4.1, SVG Export Plug-In . SVG Version: 6.00 Build 0)  -->
<svg version="1.1" id="Calque_1" xmlns="http://www.w3.org/2000/svg" xmlns:xlink="http://www.w3.org/1999/xlink" x="0px" y="0px"
	 width="500px" height="201.8px" viewBox="0 0 500 201.8" style="enable-background:new 0 0 500 201.8;" xml:space="preserve">
<g>
	<g style="enable-background:new    ;">
		<path style="fill:#F3B4AB;" d="M33.1,21.1h15.2l34.1,70.5h-15l-5.6-11.9H20.5l-5.5,11.9H0L33.1,21.1z M56.1,67.9l-15.2-32L26,67.9
			H56.1z"/>
		<path style="fill:#F3B4AB;" d="M90.6,21.1h14.3v38.8c0,3.2,0.4,6,1.3,8.5c0.9,2.5,2.2,4.6,3.9,6.3c1.7,1.7,3.9,3,6.4,3.9
			c2.6,0.9,5.5,1.3,8.9,1.3c3.4,0,6.3-0.4,8.9-1.3c2.6-0.9,4.7-2.2,6.4-3.9c1.7-1.7,3-3.8,3.9-6.3c0.9-2.5,1.3-5.3,1.3-8.5V21.1
			h14.3v40.5c0,4.6-0.8,8.8-2.3,12.6c-1.6,3.8-3.8,7-6.8,9.7c-3,2.7-6.6,4.8-10.9,6.3c-4.3,1.5-9.2,2.2-14.8,2.2
			c-5.5,0-10.5-0.7-14.8-2.2c-4.3-1.5-8-3.6-10.9-6.3s-5.2-6-6.8-9.7c-1.6-3.8-2.3-8-2.3-12.6V21.1z"/>
		<path style="fill:#F3B4AB;" d="M177.8,21.1h35.9c5.4,0,10.1,0.6,14.1,1.7c4,1.1,7.3,2.8,9.9,4.9c2.6,2.1,4.6,4.7,5.8,7.8
			c1.3,3.1,1.9,6.5,1.9,10.4c0,2.6-0.3,5.1-0.9,7.5c-0.6,2.4-1.6,4.5-2.9,6.5c-1.3,2-3,3.8-4.9,5.3c-2,1.5-4.3,2.8-7,3.9l15.3,22.5
			h-17.5l-13.3-20h-0.4l-21.6,0v20.1h-14.3V21.1z M214,59.1c2.7,0,5.1-0.3,7.1-0.9c2-0.6,3.7-1.5,5.1-2.7c1.4-1.1,2.4-2.5,3.1-4.2
			c0.7-1.6,1-3.5,1-5.5c0-3.9-1.4-7-4.1-9.1c-2.7-2.1-6.8-3.2-12.2-3.2h-21.9v25.6H214z"/>
		<path style="fill:#F3B4AB;" d="M262.2,21.1h60v12.5h-45.7v14.1H317v11.8h-40.5v19.6h46.7v12.5h-61V21.1z M276,8.5L306.3,0
			l3.2,11.2l-30.8,7.2L276,8.5z"/>
		<path style="fill:#F3B4AB;" d="M339.1,21.1h14.3V79h41v12.5h-55.3V21.1z"/>
		<path style="fill:#F3B4AB;" d="M406.4,21.1h14.4v70.5h-14.4V21.1z"/>
		<path style="fill:#F3B4AB;" d="M439,21.1h60v12.5h-45.7v14.1h40.5v11.8h-40.5v19.6H500v12.5h-61V21.1z"/>
	</g>
	<g style="enable-background:new    ;">
		<path style="fill:#F3B4AB;" d="M9.1,131.3h14.3v57.9h41v12.5H9.1V131.3z"/>
		<path style="fill:#F3B4AB;" d="M102.2,131.3h15.2l34.1,70.5h-15l-5.6-11.9H89.7l-5.5,11.9H69.1L102.2,131.3z M125.2,178.2
			l-15.2-32l-14.8,32H125.2z"/>
		<path style="fill:#F3B4AB;" d="M162.5,131.3h14.3l25.6,25.7l25.6-25.7h14.3v70.5H228v-50.7l-25.6,24.7l-25.6-24.7v50.7h-14.3
			V131.3z"/>
		<path style="fill:#F3B4AB;" d="M284,184.4l-30.8-53h16.2l21.7,40.1l21.4-40.1h16.2l-30.4,52.9v17.5H284V184.4z"/>
	</g>
	<g id="Ellipse_10">
		<circle style="fill:#EA542A;" cx="125.9" cy="50.2" r="6.9"/>
	</g>
</g>
</svg>
